# xmcd CD database file
#
# Track frame offsets:
#	150
#	2705
#	19637
#	31012
#	47275
#	65692
#	81430
#	99232
#	114830
#	132197
#	149935
#	169292
#	186350
#	201355
#	214090
#	231495
#	254127
#	277610
#	294970
#
# Disc length: 4179 seconds
#
# Revision: 0
# Processed by: cddbd v1.5.2PL0 Copyright (c) Steve Scherf et al.
# Submitted via: CDex 1.51
#
DISCID=13105113
DTITLE=Ballew,Michael - Live At Gruene Hall
DYEAR=1997
DGENRE=Country
TTITLE0=Intro
TTITLE1=Hot Spot
TTITLE2=Damned Ol´Beer
TTITLE3=The Whiskey´s Fine
TTITLE4=Can´t Drive Home
TTITLE5=I Can´t Do That (Anymore)
TTITLE6=I´m Leavin´ These Honky Tonks
TTITLE7=I Love To Ride
TTITLE8=Texas Gal
TTITLE9=Top Of The World
TTITLE10=Heavy On The Blues
TTITLE11=Where Are The Rangers
TTITLE12=Sixteen Tons
TTITLE13=The Music Is Sweet
TTITLE14=Darkside Of The Dance Floor
TTITLE15=The Old Cowboy
TTITLE16=Cowboy And The Preacher
TTITLE17=Texas Blue Water
TTITLE18=I Love Texas
EXTD=YEAR: 1997
EXTT0=
EXTT1=
EXTT2=
EXTT3=
EXTT4=
EXTT5=
EXTT6=
EXTT7=
EXTT8=
EXTT9=
EXTT10=
EXTT11=
EXTT12=
EXTT13=
EXTT14=
EXTT15=
EXTT16=
EXTT17=
EXTT18=
PLAYORDER=
